<?xml version="1.0" encoding="UTF-8" standalone="no"?>
<!DOCTYPE svg PUBLIC "-//W3C//DTD SVG 1.1//EN" "http://www.w3.org/Graphics/SVG/1.1/DTD/svg11.dtd"[]>
<!-- Generated by graphviz version 9.0.0 (20230911.1827)
 -->
<!-- Title: InscricoesGinasioZP&#45;DD1CB3F0&#45;94F2&#45;EE11&#45;A1FD&#45;002248A44E9F Pages: 1 -->
<svg width="1598pt" height="984pt" viewBox="0.00 0.00 1598.00 984.25" xmlns="http://www.w3.org/2000/svg" xmlns:xlink="http://www.w3.org/1999/xlink">
  <g id="graph0" class="graph" transform="scale(1 1) rotate(0) translate(4 980.25)">
    <title>InscricoesGinasioZP-DD1CB3F0-94F2-EE11-A1FD-002248A44E9F</title>
    <polygon fill="white" stroke="none" points="-4,4 -4,-980.25 1594,-980.25 1594,4 -4,4" />
    <g id="clust1" class="cluster">
      <title>cluster_Comutador</title>
      <polygon fill="#ffffff" stroke="#000090" points="8,-65 8,-546.25 1582,-546.25 1582,-65 8,-65" />
    </g>
    <g id="clust2" class="cluster">
      <title>cluster_Condicao_1</title>
      <polygon fill="#ffffff" stroke="#000090" points="394,-100 394,-306 782,-306 782,-100 394,-100" />
    </g>
    <g id="clust4" class="cluster">
      <title>cluster_noCondicao_1</title>
      <polygon fill="#fb8981" stroke="#fb8981" points="592,-108 592,-233 774,-233 774,-108 592,-108" />
    </g>
    <g id="clust3" class="cluster">
      <title>cluster_yesCondicao_1</title>
      <polygon fill="#88da8d" stroke="#88da8d" points="402,-108 402,-233 584,-233 584,-108 402,-108" />
    </g>
    <g id="clust11" class="cluster">
      <title>cluster_Condicao</title>
      <polygon fill="#ffffff" stroke="#000090" points="16,-100 16,-306 386,-306 386,-100 16,-100" />
    </g>
    <g id="clust13" class="cluster">
      <title>cluster_noCondicao</title>
      <polygon fill="#fb8981" stroke="#fb8981" points="196,-108 196,-233 378,-233 378,-108 196,-108" />
    </g>
    <g id="clust12" class="cluster">
      <title>cluster_yesCondicao</title>
      <polygon fill="#88da8d" stroke="#88da8d" points="24,-108 24,-233 188,-233 188,-108 24,-108" />
    </g>
    <g id="clust5" class="cluster">
      <title>cluster_Condicao_2</title>
      <polygon fill="#ffffff" stroke="#000090" points="790,-100 790,-306 1178,-306 1178,-100 790,-100" />
    </g>
    <g id="clust6" class="cluster">
      <title>cluster_yesCondicao_2</title>
      <polygon fill="#88da8d" stroke="#88da8d" points="798,-108 798,-233 980,-233 980,-108 798,-108" />
    </g>
    <g id="clust7" class="cluster">
      <title>cluster_noCondicao_2</title>
      <polygon fill="#fb8981" stroke="#fb8981" points="988,-108 988,-233 1170,-233 1170,-108 988,-108" />
    </g>
    <g id="clust8" class="cluster">
      <title>cluster_Condicao_3</title>
      <polygon fill="#ffffff" stroke="#000090" points="1186,-100 1186,-306 1574,-306 1574,-100 1186,-100" />
    </g>
    <g id="clust10" class="cluster">
      <title>cluster_noCondicao_3</title>
      <polygon fill="#fb8981" stroke="#fb8981" points="1384,-108 1384,-233 1566,-233 1566,-108 1384,-108" />
    </g>
    <g id="clust9" class="cluster">
      <title>cluster_yesCondicao_3</title>
      <polygon fill="#88da8d" stroke="#88da8d" points="1194,-108 1194,-233 1376,-233 1376,-108 1194,-108" />
    </g>
    <!-- Definir_variavel_2 -->
    <g id="node1" class="node">
      <title>Definir_variavel_2</title>
      <polygon fill="#ebdbf9" stroke="#770bd6" points="568.62,-225 455.38,-225 455.38,-189 568.62,-189 568.62,-225" />
      <text text-anchor="middle" x="512" y="-201.95" font-family="Helvetica,sans-Serif" font-size="14.00">Definir_variavel_2</text>
    </g>
    <!-- Enviar_um_e&#45;mail_(V2)_2 -->
    <g id="node2" class="node">
      <title>Enviar_um_e-mail_(V2)_2</title>
      <polygon fill="#daece3" stroke="#088142" points="575.5,-152 410.5,-152 410.5,-116 575.5,-116 575.5,-152" />
      <text text-anchor="middle" x="493" y="-128.95" font-family="Helvetica,sans-Serif" font-size="14.00">Enviar_um_e-mail_(V2)_2</text>
    </g>
    <!-- Definir_variavel_2&#45;&gt;Enviar_um_e&#45;mail_(V2)_2 -->
    <g id="edge23" class="edge">
      <title>Definir_variavel_2-&gt;Enviar_um_e-mail_(V2)_2</title>
      <path fill="none" stroke="black" d="M507.4,-188.81C505.32,-181.05 502.82,-171.68 500.48,-162.95" />
      <polygon fill="black" stroke="black" points="503.91,-162.25 497.95,-153.49 497.15,-164.06 503.91,-162.25" />
    </g>
    <!-- invisnodeGraph cluster_Comutador with 29 nodes.Name: Atualizar_uma_linha_4, root name: InscricoesGinasioZP&#45;DD1CB3F0&#45;94F2&#45;EE11&#45;A1FD&#45;002248A44E9F -->
    <!-- Enviar_um_e&#45;mail_(V2)_2&#45;&gt;invisnodeGraph cluster_Comutador with 29 nodes.Name: Atualizar_uma_linha_4, root name: InscricoesGinasioZP&#45;DD1CB3F0&#45;94F2&#45;EE11&#45;A1FD&#45;002248A44E9F -->
    <!-- Definir_variavel_3 -->
    <g id="node3" class="node">
      <title>Definir_variavel_3</title>
      <polygon fill="#ebdbf9" stroke="#770bd6" points="726.62,-225 613.38,-225 613.38,-189 726.62,-189 726.62,-225" />
      <text text-anchor="middle" x="670" y="-201.95" font-family="Helvetica,sans-Serif" font-size="14.00">Definir_variavel_3</text>
    </g>
    <!-- Enviar_um_e&#45;mail_(V2)_3 -->
    <g id="node4" class="node">
      <title>Enviar_um_e-mail_(V2)_3</title>
      <polygon fill="#daece3" stroke="#088142" points="765.5,-152 600.5,-152 600.5,-116 765.5,-116 765.5,-152" />
      <text text-anchor="middle" x="683" y="-128.95" font-family="Helvetica,sans-Serif" font-size="14.00">Enviar_um_e-mail_(V2)_3</text>
    </g>
    <!-- Definir_variavel_3&#45;&gt;Enviar_um_e&#45;mail_(V2)_3 -->
    <g id="edge25" class="edge">
      <title>Definir_variavel_3-&gt;Enviar_um_e-mail_(V2)_3</title>
      <path fill="none" stroke="black" d="M673.15,-188.81C674.55,-181.14 676.25,-171.89 677.83,-163.24" />
      <polygon fill="black" stroke="black" points="681.25,-163.98 679.61,-153.52 674.37,-162.72 681.25,-163.98" />
    </g>
    <!-- Enviar_um_e&#45;mail_(V2)_3&#45;&gt;invisnodeGraph cluster_Comutador with 29 nodes.Name: Atualizar_uma_linha_4, root name: InscricoesGinasioZP&#45;DD1CB3F0&#45;94F2&#45;EE11&#45;A1FD&#45;002248A44E9F -->
    <!-- Condicao_1 -->
    <g id="node5" class="node">
      <title>Condicao_1</title>
      <polygon fill="#dedfe0" stroke="#484f58" points="657.62,-298 580.38,-298 580.38,-262 657.62,-262 657.62,-298" />
      <text text-anchor="middle" x="619" y="-274.95" font-family="Helvetica,sans-Serif" font-size="14.00">Condicao_1</text>
    </g>
    <!-- Condicao_1&#45;&gt;Definir_variavel_2 -->
    <g id="edge21" class="edge">
      <title>Condicao_1-&gt;Definir_variavel_2</title>
      <path fill="none" stroke="black" d="M592.82,-261.63C582.69,-254.9 570.76,-246.99 559.22,-239.33" />
      <polygon fill="black" stroke="black" points="561.2,-236.45 550.93,-233.83 557.33,-242.28 561.2,-236.45" />
    </g>
    <!-- Condicao_1&#45;&gt;Definir_variavel_3 -->
    <g id="edge22" class="edge">
      <title>Condicao_1-&gt;Definir_variavel_3</title>
      <path fill="none" stroke="black" d="M631.35,-261.81C637.3,-253.53 644.56,-243.41 651.19,-234.19" />
      <polygon fill="black" stroke="black" points="645.68,-242.73 651.56,-233.91 641.47,-237.14 645.68,-242.73" />
    </g>
    <!-- Definir_variavel_4 -->
    <g id="node6" class="node">
      <title>Definir_variavel_4</title>
      <polygon fill="#ebdbf9" stroke="#770bd6" points="954.62,-225 841.38,-225 841.38,-189 954.62,-189 954.62,-225" />
      <text text-anchor="middle" x="898" y="-201.95" font-family="Helvetica,sans-Serif" font-size="14.00">Definir_variavel_4</text>
    </g>
    <!-- Enviar_um_e&#45;mail_(V2)_4 -->
    <g id="node7" class="node">
      <title>Enviar_um_e-mail_(V2)_4</title>
      <polygon fill="#daece3" stroke="#088142" points="971.5,-152 806.5,-152 806.5,-116 971.5,-116 971.5,-152" />
      <text text-anchor="middle" x="889" y="-128.95" font-family="Helvetica,sans-Serif" font-size="14.00">Enviar_um_e-mail_(V2)_4</text>
    </g>
    <!-- Definir_variavel_4&#45;&gt;Enviar_um_e&#45;mail_(V2)_4 -->
    <g id="edge31" class="edge">
      <title>Definir_variavel_4-&gt;Enviar_um_e-mail_(V2)_4</title>
      <path fill="none" stroke="black" d="M895.82,-188.81C894.85,-181.14 893.68,-171.89 892.58,-163.24" />
      <polygon fill="black" stroke="black" points="896.08,-163.01 891.35,-153.53 889.13,-163.89 896.08,-163.01" />
    </g>
    <!-- Enviar_um_e&#45;mail_(V2)_4&#45;&gt;invisnodeGraph cluster_Comutador with 29 nodes.Name: Atualizar_uma_linha_4, root name: InscricoesGinasioZP&#45;DD1CB3F0&#45;94F2&#45;EE11&#45;A1FD&#45;002248A44E9F -->
    <!-- Definir_variavel_5 -->
    <g id="node8" class="node">
      <title>Definir_variavel_5</title>
      <polygon fill="#ebdbf9" stroke="#770bd6" points="1122.62,-225 1009.38,-225 1009.38,-189 1122.62,-189 1122.62,-225" />
      <text text-anchor="middle" x="1066" y="-201.95" font-family="Helvetica,sans-Serif" font-size="14.00">Definir_variavel_5</text>
    </g>
    <!-- Enviar_um_e&#45;mail_(V2)_5 -->
    <g id="node9" class="node">
      <title>Enviar_um_e-mail_(V2)_5</title>
      <polygon fill="#daece3" stroke="#088142" points="1161.5,-152 996.5,-152 996.5,-116 1161.5,-116 1161.5,-152" />
      <text text-anchor="middle" x="1079" y="-128.95" font-family="Helvetica,sans-Serif" font-size="14.00">Enviar_um_e-mail_(V2)_5</text>
    </g>
    <!-- Definir_variavel_5&#45;&gt;Enviar_um_e&#45;mail_(V2)_5 -->
    <g id="edge33" class="edge">
      <title>Definir_variavel_5-&gt;Enviar_um_e-mail_(V2)_5</title>
      <path fill="none" stroke="black" d="M1069.15,-188.81C1070.55,-181.14 1072.25,-171.89 1073.83,-163.24" />
      <polygon fill="black" stroke="black" points="1077.25,-163.98 1075.61,-153.52 1070.37,-162.72 1077.25,-163.98" />
    </g>
    <!-- Enviar_um_e&#45;mail_(V2)_5&#45;&gt;invisnodeGraph cluster_Comutador with 29 nodes.Name: Atualizar_uma_linha_4, root name: InscricoesGinasioZP&#45;DD1CB3F0&#45;94F2&#45;EE11&#45;A1FD&#45;002248A44E9F -->
    <!-- Condicao_2 -->
    <g id="node10" class="node">
      <title>Condicao_2</title>
      <polygon fill="#dedfe0" stroke="#484f58" points="948.62,-298 871.38,-298 871.38,-262 948.62,-262 948.62,-298" />
      <text text-anchor="middle" x="910" y="-274.95" font-family="Helvetica,sans-Serif" font-size="14.00">Condicao_2</text>
    </g>
    <!-- Condicao_2&#45;&gt;Definir_variavel_4 -->
    <g id="edge29" class="edge">
      <title>Condicao_2-&gt;Definir_variavel_4</title>
      <path fill="none" stroke="black" d="M907.1,-261.81C905.8,-254.14 904.24,-244.89 902.77,-236.24" />
      <polygon fill="black" stroke="black" points="908.32,-243.17 902.28,-234.46 901.57,-245.03 908.32,-243.17" />
    </g>
    <!-- Condicao_2&#45;&gt;Definir_variavel_5 -->
    <g id="edge30" class="edge">
      <title>Condicao_2-&gt;Definir_variavel_5</title>
      <path fill="none" stroke="black" d="M948.16,-261.63C963.98,-254.43 982.79,-245.87 1000.68,-237.73" />
      <polygon fill="black" stroke="black" points="1002.05,-240.95 1009.7,-233.62 999.15,-234.58 1002.05,-240.95" />
    </g>
    <!-- Definir_variavel_6 -->
    <g id="node11" class="node">
      <title>Definir_variavel_6</title>
      <polygon fill="#ebdbf9" stroke="#770bd6" points="1341.62,-225 1228.38,-225 1228.38,-189 1341.62,-189 1341.62,-225" />
      <text text-anchor="middle" x="1285" y="-201.95" font-family="Helvetica,sans-Serif" font-size="14.00">Definir_variavel_6</text>
    </g>
    <!-- Enviar_um_e&#45;mail_(V2)_6 -->
    <g id="node12" class="node">
      <title>Enviar_um_e-mail_(V2)_6</title>
      <polygon fill="#daece3" stroke="#088142" points="1367.5,-152 1202.5,-152 1202.5,-116 1367.5,-116 1367.5,-152" />
      <text text-anchor="middle" x="1285" y="-128.95" font-family="Helvetica,sans-Serif" font-size="14.00">Enviar_um_e-mail_(V2)_6</text>
    </g>
    <!-- Definir_variavel_6&#45;&gt;Enviar_um_e&#45;mail_(V2)_6 -->
    <g id="edge39" class="edge">
      <title>Definir_variavel_6-&gt;Enviar_um_e-mail_(V2)_6</title>
      <path fill="none" stroke="black" d="M1285,-188.81C1285,-181.23 1285,-172.1 1285,-163.54" />
      <polygon fill="black" stroke="black" points="1288.5,-163.54 1285,-153.54 1281.5,-163.54 1288.5,-163.54" />
    </g>
    <!-- Enviar_um_e&#45;mail_(V2)_6&#45;&gt;invisnodeGraph cluster_Comutador with 29 nodes.Name: Atualizar_uma_linha_4, root name: InscricoesGinasioZP&#45;DD1CB3F0&#45;94F2&#45;EE11&#45;A1FD&#45;002248A44E9F -->
    <!-- Definir_variavel_7 -->
    <g id="node13" class="node">
      <title>Definir_variavel_7</title>
      <polygon fill="#ebdbf9" stroke="#770bd6" points="1518.62,-225 1405.38,-225 1405.38,-189 1518.62,-189 1518.62,-225" />
      <text text-anchor="middle" x="1462" y="-201.95" font-family="Helvetica,sans-Serif" font-size="14.00">Definir_variavel_7</text>
    </g>
    <!-- Enviar_um_e&#45;mail_(V2)_7 -->
    <g id="node14" class="node">
      <title>Enviar_um_e-mail_(V2)_7</title>
      <polygon fill="#daece3" stroke="#088142" points="1557.5,-152 1392.5,-152 1392.5,-116 1557.5,-116 1557.5,-152" />
      <text text-anchor="middle" x="1475" y="-128.95" font-family="Helvetica,sans-Serif" font-size="14.00">Enviar_um_e-mail_(V2)_7</text>
    </g>
    <!-- Definir_variavel_7&#45;&gt;Enviar_um_e&#45;mail_(V2)_7 -->
    <g id="edge41" class="edge">
      <title>Definir_variavel_7-&gt;Enviar_um_e-mail_(V2)_7</title>
      <path fill="none" stroke="black" d="M1465.15,-188.81C1466.55,-181.14 1468.25,-171.89 1469.83,-163.24" />
      <polygon fill="black" stroke="black" points="1473.25,-163.98 1471.61,-153.52 1466.37,-162.72 1473.25,-163.98" />
    </g>
    <!-- Enviar_um_e&#45;mail_(V2)_7&#45;&gt;invisnodeGraph cluster_Comutador with 29 nodes.Name: Atualizar_uma_linha_4, root name: InscricoesGinasioZP&#45;DD1CB3F0&#45;94F2&#45;EE11&#45;A1FD&#45;002248A44E9F -->
    <!-- Condicao_3 -->
    <g id="node15" class="node">
      <title>Condicao_3</title>
      <polygon fill="#dedfe0" stroke="#484f58" points="1323.62,-298 1246.38,-298 1246.38,-262 1323.62,-262 1323.62,-298" />
      <text text-anchor="middle" x="1285" y="-274.95" font-family="Helvetica,sans-Serif" font-size="14.00">Condicao_3</text>
    </g>
    <!-- Condicao_3&#45;&gt;Definir_variavel_6 -->
    <g id="edge37" class="edge">
      <title>Condicao_3-&gt;Definir_variavel_6</title>
      <path fill="none" stroke="black" d="M1285,-261.81C1285,-254.23 1285,-245.1 1285,-236.54" />
      <polygon fill="black" stroke="black" points="1288.5,-244.51 1285,-234.51 1281.5,-244.51 1288.5,-244.51" />
    </g>
    <!-- Condicao_3&#45;&gt;Definir_variavel_7 -->
    <g id="edge38" class="edge">
      <title>Condicao_3-&gt;Definir_variavel_7</title>
      <path fill="none" stroke="black" d="M1323.84,-263.42C1343.02,-255.73 1366.78,-246.19 1389.17,-237.21" />
      <polygon fill="black" stroke="black" points="1390.3,-240.53 1398.28,-233.56 1387.69,-234.04 1390.3,-240.53" />
    </g>
    <!-- Definir_variavel -->
    <g id="node16" class="node">
      <title>Definir_variavel</title>
      <polygon fill="#ebdbf9" stroke="#770bd6" points="173.38,-225 76.62,-225 76.62,-189 173.38,-189 173.38,-225" />
      <text text-anchor="middle" x="125" y="-201.95" font-family="Helvetica,sans-Serif" font-size="14.00">Definir_variavel</text>
    </g>
    <!-- Enviar_um_e&#45;mail_(V2) -->
    <g id="node17" class="node">
      <title>Enviar_um_e-mail_(V2)</title>
      <polygon fill="#daece3" stroke="#088142" points="180.25,-152 31.75,-152 31.75,-116 180.25,-116 180.25,-152" />
      <text text-anchor="middle" x="106" y="-128.95" font-family="Helvetica,sans-Serif" font-size="14.00">Enviar_um_e-mail_(V2)</text>
    </g>
    <!-- Definir_variavel&#45;&gt;Enviar_um_e&#45;mail_(V2) -->
    <g id="edge15" class="edge">
      <title>Definir_variavel-&gt;Enviar_um_e-mail_(V2)</title>
      <path fill="none" stroke="black" d="M120.4,-188.81C118.32,-181.05 115.82,-171.68 113.48,-162.95" />
      <polygon fill="black" stroke="black" points="116.91,-162.25 110.95,-153.49 110.15,-164.06 116.91,-162.25" />
    </g>
    <!-- Enviar_um_e&#45;mail_(V2)&#45;&gt;invisnodeGraph cluster_Comutador with 29 nodes.Name: Atualizar_uma_linha_4, root name: InscricoesGinasioZP&#45;DD1CB3F0&#45;94F2&#45;EE11&#45;A1FD&#45;002248A44E9F -->
    <!-- Definir_variavel_1 -->
    <g id="node18" class="node">
      <title>Definir_variavel_1</title>
      <polygon fill="#ebdbf9" stroke="#770bd6" points="343.62,-225 230.38,-225 230.38,-189 343.62,-189 343.62,-225" />
      <text text-anchor="middle" x="287" y="-201.95" font-family="Helvetica,sans-Serif" font-size="14.00">Definir_variavel_1</text>
    </g>
    <!-- Enviar_um_e&#45;mail_(V2)_1 -->
    <g id="node19" class="node">
      <title>Enviar_um_e-mail_(V2)_1</title>
      <polygon fill="#daece3" stroke="#088142" points="369.5,-152 204.5,-152 204.5,-116 369.5,-116 369.5,-152" />
      <text text-anchor="middle" x="287" y="-128.95" font-family="Helvetica,sans-Serif" font-size="14.00">Enviar_um_e-mail_(V2)_1</text>
    </g>
    <!-- Definir_variavel_1&#45;&gt;Enviar_um_e&#45;mail_(V2)_1 -->
    <g id="edge17" class="edge">
      <title>Definir_variavel_1-&gt;Enviar_um_e-mail_(V2)_1</title>
      <path fill="none" stroke="black" d="M287,-188.81C287,-181.23 287,-172.1 287,-163.54" />
      <polygon fill="black" stroke="black" points="290.5,-163.54 287,-153.54 283.5,-163.54 290.5,-163.54" />
    </g>
    <!-- Enviar_um_e&#45;mail_(V2)_1&#45;&gt;invisnodeGraph cluster_Comutador with 29 nodes.Name: Atualizar_uma_linha_4, root name: InscricoesGinasioZP&#45;DD1CB3F0&#45;94F2&#45;EE11&#45;A1FD&#45;002248A44E9F -->
    <!-- Condicao -->
    <g id="node20" class="node">
      <title>Condicao</title>
      <polygon fill="#dedfe0" stroke="#484f58" points="317.38,-298 256.62,-298 256.62,-262 317.38,-262 317.38,-298" />
      <text text-anchor="middle" x="287" y="-274.95" font-family="Helvetica,sans-Serif" font-size="14.00">Condicao</text>
    </g>
    <!-- Condicao&#45;&gt;Definir_variavel -->
    <g id="edge13" class="edge">
      <title>Condicao-&gt;Definir_variavel</title>
      <path fill="none" stroke="black" d="M256.15,-265.48C238.1,-257.57 214.56,-247.25 192.43,-237.55" />
      <polygon fill="black" stroke="black" points="193.99,-234.41 183.43,-233.61 191.18,-240.83 193.99,-234.41" />
    </g>
    <!-- Condicao&#45;&gt;Definir_variavel_1 -->
    <g id="edge14" class="edge">
      <title>Condicao-&gt;Definir_variavel_1</title>
      <path fill="none" stroke="black" d="M287,-261.81C287,-254.23 287,-245.1 287,-236.54" />
      <polygon fill="black" stroke="black" points="290.5,-244.51 287,-234.51 283.5,-244.51 290.5,-244.51" />
    </g>
    <!-- Comutador -->
    <g id="node21" class="node">
      <title>Comutador</title>
      <polygon fill="#eee9ff" stroke="#8c6cff" points="823.88,-538.25 704.12,-538.25 704.12,-495.75 823.88,-495.75 823.88,-538.25" />
      <text text-anchor="start" x="728.75" y="-520.95" font-family="Helvetica,sans-Serif" font-size="14.00">Comutador</text>
      <text text-anchor="start" x="708.12" y="-502.25" font-family="Helvetica,sans-Serif" font-size="10.00">(@variables('Modalidade'))</text>
    </g>
    <!-- Iniciar_e_aguardar_por_uma_aprovacao -->
    <g id="node22" class="node">
      <title>Iniciar_e_aguardar_por_uma_aprovacao</title>
      <polygon fill="white" stroke="blue" points="458.25,-444 201.75,-444 201.75,-408 458.25,-408 458.25,-444" />
      <text text-anchor="middle" x="330" y="-420.95" font-family="Helvetica,sans-Serif" font-size="14.00">Iniciar_e_aguardar_por_uma_aprovacao</text>
    </g>
    <!-- Comutador&#45;&gt;Iniciar_e_aguardar_por_uma_aprovacao -->
    <g id="edge7" class="edge">
      <title>Comutador-&gt;Iniciar_e_aguardar_por_uma_aprovacao</title>
      <path fill="none" stroke="black" d="M703.65,-503.62C631.88,-488.91 511.14,-464.15 426.39,-446.77" />
      <polygon fill="black" stroke="black" points="427.18,-443.36 416.68,-444.77 425.77,-450.21 427.18,-443.36" />
      <text text-anchor="middle" x="602.75" y="-464.45" font-family="Times New Roman,serif" font-size="14.00">Krav Maga</text>
    </g>
    <!-- Iniciar_e_aguardar_por_uma_aprovacao_1 -->
    <g id="node24" class="node">
      <title>Iniciar_e_aguardar_por_uma_aprovacao_1</title>
      <polygon fill="white" stroke="blue" points="755.5,-444 482.5,-444 482.5,-408 755.5,-408 755.5,-444" />
      <text text-anchor="middle" x="619" y="-420.95" font-family="Helvetica,sans-Serif" font-size="14.00">Iniciar_e_aguardar_por_uma_aprovacao_1</text>
    </g>
    <!-- Comutador&#45;&gt;Iniciar_e_aguardar_por_uma_aprovacao_1 -->
    <g id="edge8" class="edge">
      <title>Comutador-&gt;Iniciar_e_aguardar_por_uma_aprovacao_1</title>
      <path fill="none" stroke="black" d="M730.37,-495.36C708.36,-481.85 679.57,-464.18 656.77,-450.18" />
      <polygon fill="black" stroke="black" points="658.73,-447.28 648.38,-445.03 655.07,-453.25 658.73,-447.28" />
      <text text-anchor="middle" x="732.25" y="-464.45" font-family="Times New Roman,serif" font-size="14.00">Kickboxing</text>
    </g>
    <!-- Iniciar_e_aguardar_por_uma_aprovacao_2 -->
    <g id="node26" class="node">
      <title>Iniciar_e_aguardar_por_uma_aprovacao_2</title>
      <polygon fill="white" stroke="blue" points="1046.5,-444 773.5,-444 773.5,-408 1046.5,-408 1046.5,-444" />
      <text text-anchor="middle" x="910" y="-420.95" font-family="Helvetica,sans-Serif" font-size="14.00">Iniciar_e_aguardar_por_uma_aprovacao_2</text>
    </g>
    <!-- Comutador&#45;&gt;Iniciar_e_aguardar_por_uma_aprovacao_2 -->
    <g id="edge9" class="edge">
      <title>Comutador-&gt;Iniciar_e_aguardar_por_uma_aprovacao_2</title>
      <path fill="none" stroke="black" d="M797.86,-495.36C820.02,-481.85 849.02,-464.18 871.97,-450.18" />
      <polygon fill="black" stroke="black" points="873.71,-453.22 880.43,-445.03 870.07,-447.24 873.71,-453.22" />
      <text text-anchor="middle" x="869.88" y="-464.45" font-family="Times New Roman,serif" font-size="14.00">JiuJitsu</text>
    </g>
    <!-- Iniciar_e_aguardar_por_uma_aprovacao_3 -->
    <g id="node28" class="node">
      <title>Iniciar_e_aguardar_por_uma_aprovacao_3</title>
      <polygon fill="white" stroke="blue" points="1386.5,-444 1113.5,-444 1113.5,-408 1386.5,-408 1386.5,-444" />
      <text text-anchor="middle" x="1250" y="-420.95" font-family="Helvetica,sans-Serif" font-size="14.00">Iniciar_e_aguardar_por_uma_aprovacao_3</text>
    </g>
    <!-- Comutador&#45;&gt;Iniciar_e_aguardar_por_uma_aprovacao_3 -->
    <g id="edge10" class="edge">
      <title>Comutador-&gt;Iniciar_e_aguardar_por_uma_aprovacao_3</title>
      <path fill="none" stroke="black" d="M824.08,-505C903.68,-490.42 1045.43,-464.46 1143.41,-446.52" />
      <polygon fill="black" stroke="black" points="1143.84,-450 1153.05,-444.75 1142.58,-443.11 1143.84,-450" />
      <text text-anchor="middle" x="1068.75" y="-464.45" font-family="Times New Roman,serif" font-size="14.00">default</text>
    </g>
    <!-- Atualizar_uma_linha -->
    <g id="node23" class="node">
      <title>Atualizar_uma_linha</title>
      <polygon fill="#daece3" stroke="#088142" points="369.62,-371 244.38,-371 244.38,-335 369.62,-335 369.62,-371" />
      <text text-anchor="middle" x="307" y="-347.95" font-family="Helvetica,sans-Serif" font-size="14.00">Atualizar_uma_linha</text>
    </g>
    <!-- Iniciar_e_aguardar_por_uma_aprovacao&#45;&gt;Atualizar_uma_linha -->
    <g id="edge11" class="edge">
      <title>Iniciar_e_aguardar_por_uma_aprovacao-&gt;Atualizar_uma_linha</title>
      <path fill="none" stroke="black" d="M324.43,-407.81C321.92,-400.05 318.88,-390.68 316.05,-381.95" />
      <polygon fill="black" stroke="black" points="319.39,-380.9 312.98,-372.47 312.74,-383.06 319.39,-380.9" />
    </g>
    <!-- Atualizar_uma_linha&#45;&gt;Condicao -->
    <g id="edge12" class="edge">
      <title>Atualizar_uma_linha-&gt;Condicao</title>
      <path fill="none" stroke="black" d="M302.16,-334.81C299.97,-327.05 297.33,-317.68 294.87,-308.95" />
      <polygon fill="black" stroke="black" points="301.03,-315.62 294.32,-307.42 294.46,-318.02 301.03,-315.62" />
    </g>
    <!-- Atualizar_uma_linha_1 -->
    <g id="node25" class="node">
      <title>Atualizar_uma_linha_1</title>
      <polygon fill="#daece3" stroke="#088142" points="689.88,-371 548.12,-371 548.12,-335 689.88,-335 689.88,-371" />
      <text text-anchor="middle" x="619" y="-347.95" font-family="Helvetica,sans-Serif" font-size="14.00">Atualizar_uma_linha_1</text>
    </g>
    <!-- Iniciar_e_aguardar_por_uma_aprovacao_1&#45;&gt;Atualizar_uma_linha_1 -->
    <g id="edge19" class="edge">
      <title>Iniciar_e_aguardar_por_uma_aprovacao_1-&gt;Atualizar_uma_linha_1</title>
      <path fill="none" stroke="black" d="M619,-407.81C619,-400.23 619,-391.1 619,-382.54" />
      <polygon fill="black" stroke="black" points="622.5,-382.54 619,-372.54 615.5,-382.54 622.5,-382.54" />
    </g>
    <!-- Atualizar_uma_linha_1&#45;&gt;Condicao_1 -->
    <g id="edge20" class="edge">
      <title>Atualizar_uma_linha_1-&gt;Condicao_1</title>
      <path fill="none" stroke="black" d="M619,-334.81C619,-327.23 619,-318.1 619,-309.54" />
      <polygon fill="black" stroke="black" points="622.5,-317.51 619,-307.51 615.5,-317.51 622.5,-317.51" />
    </g>
    <!-- Atualizar_uma_linha_2 -->
    <g id="node27" class="node">
      <title>Atualizar_uma_linha_2</title>
      <polygon fill="#daece3" stroke="#088142" points="980.88,-371 839.12,-371 839.12,-335 980.88,-335 980.88,-371" />
      <text text-anchor="middle" x="910" y="-347.95" font-family="Helvetica,sans-Serif" font-size="14.00">Atualizar_uma_linha_2</text>
    </g>
    <!-- Iniciar_e_aguardar_por_uma_aprovacao_2&#45;&gt;Atualizar_uma_linha_2 -->
    <g id="edge27" class="edge">
      <title>Iniciar_e_aguardar_por_uma_aprovacao_2-&gt;Atualizar_uma_linha_2</title>
      <path fill="none" stroke="black" d="M910,-407.81C910,-400.23 910,-391.1 910,-382.54" />
      <polygon fill="black" stroke="black" points="913.5,-382.54 910,-372.54 906.5,-382.54 913.5,-382.54" />
    </g>
    <!-- Atualizar_uma_linha_2&#45;&gt;Condicao_2 -->
    <g id="edge28" class="edge">
      <title>Atualizar_uma_linha_2-&gt;Condicao_2</title>
      <path fill="none" stroke="black" d="M910,-334.81C910,-327.23 910,-318.1 910,-309.54" />
      <polygon fill="black" stroke="black" points="913.5,-317.51 910,-307.51 906.5,-317.51 913.5,-317.51" />
    </g>
    <!-- Atualizar_uma_linha_3 -->
    <g id="node29" class="node">
      <title>Atualizar_uma_linha_3</title>
      <polygon fill="#daece3" stroke="#088142" points="1347.88,-371 1206.12,-371 1206.12,-335 1347.88,-335 1347.88,-371" />
      <text text-anchor="middle" x="1277" y="-347.95" font-family="Helvetica,sans-Serif" font-size="14.00">Atualizar_uma_linha_3</text>
    </g>
    <!-- Iniciar_e_aguardar_por_uma_aprovacao_3&#45;&gt;Atualizar_uma_linha_3 -->
    <g id="edge35" class="edge">
      <title>Iniciar_e_aguardar_por_uma_aprovacao_3-&gt;Atualizar_uma_linha_3</title>
      <path fill="none" stroke="black" d="M1256.54,-407.81C1259.52,-399.96 1263.13,-390.47 1266.48,-381.66" />
      <polygon fill="black" stroke="black" points="1269.7,-383.03 1269.99,-372.44 1263.16,-380.55 1269.7,-383.03" />
    </g>
    <!-- Atualizar_uma_linha_3&#45;&gt;Condicao_3 -->
    <g id="edge36" class="edge">
      <title>Atualizar_uma_linha_3-&gt;Condicao_3</title>
      <path fill="none" stroke="black" d="M1278.94,-334.81C1279.8,-327.14 1280.84,-317.89 1281.82,-309.24" />
      <polygon fill="black" stroke="black" points="1282.16,-318 1282.53,-307.41 1275.64,-315.46 1282.16,-318" />
    </g>
    <!-- Atualizar_uma_linha_4 -->
    <g id="node37" class="node">
      <title>Atualizar_uma_linha_4</title>
      <polygon fill="#daece3" stroke="#088142" points="856.88,-36 715.12,-36 715.12,0 856.88,0 856.88,-36" />
      <text text-anchor="middle" x="786" y="-12.95" font-family="Helvetica,sans-Serif" font-size="14.00">Atualizar_uma_linha_4</text>
    </g>
    <!-- invisnodeGraph cluster_Comutador with 29 nodes.Name: Atualizar_uma_linha_4, root name: InscricoesGinasioZP&#45;DD1CB3F0&#45;94F2&#45;EE11&#45;A1FD&#45;002248A44E9F&#45;&gt;Atualizar_uma_linha_4 -->
    <g id="edge43" class="edge">
      <title>invisnodeGraph cluster_Comutador with 29 nodes.Name: Atualizar_uma_linha_4, root name: InscricoesGinasioZP-DD1CB3F0-94F2-EE11-A1FD-002248A44E9F-&gt;Atualizar_uma_linha_4</title>
      <path fill="none" stroke="black" d="M786,-65C786,-60.46 786,-54.22 786,-47.79" />
      <polygon fill="black" stroke="black" points="789.5,-47.82 786,-37.82 782.5,-47.82 789.5,-47.82" />
    </g>
    <!-- Quando_uma_linha_e_adicionada&#45;_modificada_ou_eliminada -->
    <g id="node31" class="node">
      <title>Quando_uma_linha_e_adicionada-_modificada_ou_eliminada</title>
      <ellipse fill="#d9ebff" stroke="#0077ff" cx="764" cy="-958.25" rx="277.06" ry="18" />
      <text text-anchor="middle" x="764" y="-953.2" font-family="Helvetica,sans-Serif" font-size="14.00">Quando_uma_linha_e_adicionada-_modificada_ou_eliminada</text>
    </g>
    <!-- Obter_conteudo_do_ficheiro -->
    <g id="node32" class="node">
      <title>Obter_conteudo_do_ficheiro</title>
      <polygon fill="#daece3" stroke="#088142" points="855.5,-903.25 672.5,-903.25 672.5,-867.25 855.5,-867.25 855.5,-903.25" />
      <text text-anchor="middle" x="764" y="-880.2" font-family="Helvetica,sans-Serif" font-size="14.00">Obter_conteudo_do_ficheiro</text>
    </g>
    <!-- Quando_uma_linha_e_adicionada&#45;_modificada_ou_eliminada&#45;&gt;Obter_conteudo_do_ficheiro -->
    <g id="edge1" class="edge">
      <title>Quando_uma_linha_e_adicionada-_modificada_ou_eliminada-&gt;Obter_conteudo_do_ficheiro</title>
      <path fill="none" stroke="black" d="M764,-940.06C764,-932.48 764,-923.35 764,-914.79" />
      <polygon fill="black" stroke="black" points="767.5,-914.79 764,-904.79 760.5,-914.79 767.5,-914.79" />
    </g>
    <!-- Compor -->
    <g id="node33" class="node">
      <title>Compor</title>
      <polygon fill="#eee9ff" stroke="#8c6cff" points="791,-830.25 737,-830.25 737,-794.25 791,-794.25 791,-830.25" />
      <text text-anchor="middle" x="764" y="-807.2" font-family="Helvetica,sans-Serif" font-size="14.00">Compor</text>
    </g>
    <!-- Obter_conteudo_do_ficheiro&#45;&gt;Compor -->
    <g id="edge2" class="edge">
      <title>Obter_conteudo_do_ficheiro-&gt;Compor</title>
      <path fill="none" stroke="black" d="M764,-867.06C764,-859.48 764,-850.35 764,-841.79" />
      <polygon fill="black" stroke="black" points="767.5,-841.79 764,-831.79 760.5,-841.79 767.5,-841.79" />
    </g>
    <!-- Inicializar_variavel_2 -->
    <g id="node34" class="node">
      <title>Inicializar_variavel_2</title>
      <polygon fill="#ebdbf9" stroke="#770bd6" points="828.88,-757.25 699.12,-757.25 699.12,-721.25 828.88,-721.25 828.88,-757.25" />
      <text text-anchor="middle" x="764" y="-734.2" font-family="Helvetica,sans-Serif" font-size="14.00">Inicializar_variavel_2</text>
    </g>
    <!-- Compor&#45;&gt;Inicializar_variavel_2 -->
    <g id="edge3" class="edge">
      <title>Compor-&gt;Inicializar_variavel_2</title>
      <path fill="none" stroke="black" d="M764,-794.06C764,-786.48 764,-777.35 764,-768.79" />
      <polygon fill="black" stroke="black" points="767.5,-768.79 764,-758.79 760.5,-768.79 767.5,-768.79" />
    </g>
    <!-- Inicializar_variavel_1 -->
    <g id="node35" class="node">
      <title>Inicializar_variavel_1</title>
      <polygon fill="#ebdbf9" stroke="#770bd6" points="828.88,-684.25 699.12,-684.25 699.12,-648.25 828.88,-648.25 828.88,-684.25" />
      <text text-anchor="middle" x="764" y="-661.2" font-family="Helvetica,sans-Serif" font-size="14.00">Inicializar_variavel_1</text>
    </g>
    <!-- Inicializar_variavel_2&#45;&gt;Inicializar_variavel_1 -->
    <g id="edge4" class="edge">
      <title>Inicializar_variavel_2-&gt;Inicializar_variavel_1</title>
      <path fill="none" stroke="black" d="M764,-721.06C764,-713.48 764,-704.35 764,-695.79" />
      <polygon fill="black" stroke="black" points="767.5,-695.79 764,-685.79 760.5,-695.79 767.5,-695.79" />
    </g>
    <!-- Inicializar_variavel -->
    <g id="node36" class="node">
      <title>Inicializar_variavel</title>
      <polygon fill="#ebdbf9" stroke="#770bd6" points="820.62,-611.25 707.38,-611.25 707.38,-575.25 820.62,-575.25 820.62,-611.25" />
      <text text-anchor="middle" x="764" y="-588.2" font-family="Helvetica,sans-Serif" font-size="14.00">Inicializar_variavel</text>
    </g>
    <!-- Inicializar_variavel_1&#45;&gt;Inicializar_variavel -->
    <g id="edge5" class="edge">
      <title>Inicializar_variavel_1-&gt;Inicializar_variavel</title>
      <path fill="none" stroke="black" d="M764,-648.06C764,-640.48 764,-631.35 764,-622.79" />
      <polygon fill="black" stroke="black" points="767.5,-622.79 764,-612.79 760.5,-622.79 767.5,-622.79" />
    </g>
    <!-- Inicializar_variavel&#45;&gt;Comutador -->
    <g id="edge6" class="edge">
      <title>Inicializar_variavel-&gt;Comutador</title>
      <path fill="none" stroke="black" d="M764,-575.03C764,-567.55 764,-558.54 764,-549.91" />
      <polygon fill="black" stroke="black" points="767.5,-557.76 764,-547.76 760.5,-557.76 767.5,-557.76" />
    </g>
  </g>
</svg>