<?xml version="1.0" encoding="UTF-8" standalone="no"?>
<!DOCTYPE svg PUBLIC "-//W3C//DTD SVG 1.1//EN" "http://www.w3.org/Graphics/SVG/1.1/DTD/svg11.dtd"[]>
<!-- Generated by graphviz version 9.0.0 (20230911.1827)
 -->
<!-- Title: InscricoesGinasioZP&#45;DD1CB3F0&#45;94F2&#45;EE11&#45;A1FD&#45;002248A44E9F Pages: 1 -->
<svg width="562pt" height="555pt" viewBox="0.00 0.00 562.12 554.50" xmlns="http://www.w3.org/2000/svg" xmlns:xlink="http://www.w3.org/1999/xlink">
  <g id="graph0" class="graph" transform="scale(1 1) rotate(0) translate(4 550.5)">
    <title>InscricoesGinasioZP-DD1CB3F0-94F2-EE11-A1FD-002248A44E9F</title>
    <polygon fill="white" stroke="none" points="-4,4 -4,-550.5 558.12,-550.5 558.12,4 -4,4" />
    <g id="clust1" class="cluster">
      <title>cluster_Comutador</title>
      <polygon fill="#ffffff" stroke="#000090" points="191.06,-64 191.06,-122.5 345.06,-122.5 345.06,-64 191.06,-64" />
    </g>
    <!-- Comutador -->
    <g id="node1" class="node">
      <title>Comutador</title>
      <polygon fill="#eee9ff" stroke="#8c6cff" points="336.93,-114.5 217.18,-114.5 217.18,-72 336.93,-72 336.93,-114.5" />
      <text text-anchor="start" x="241.81" y="-97.2" font-family="Helvetica,sans-Serif" font-size="14.00">Comutador</text>
      <text text-anchor="start" x="221.18" y="-78.5" font-family="Helvetica,sans-Serif" font-size="10.00">(@variables('Modalidade'))</text>
    </g>
    <!-- invisnodeGraph cluster_Comutador with 1 nodes.Name: Atualizar_uma_linha_4, root name: InscricoesGinasioZP&#45;DD1CB3F0&#45;94F2&#45;EE11&#45;A1FD&#45;002248A44E9F -->
    <!-- Atualizar_uma_linha_4 -->
    <g id="node9" class="node">
      <title>Atualizar_uma_linha_4</title>
      <polygon fill="#daece3" stroke="#088142" points="269.93,-36 128.18,-36 128.18,0 269.93,0 269.93,-36" />
      <text text-anchor="middle" x="199.06" y="-12.95" font-family="Helvetica,sans-Serif" font-size="14.00">Atualizar_uma_linha_4</text>
    </g>
    <!-- invisnodeGraph cluster_Comutador with 1 nodes.Name: Atualizar_uma_linha_4, root name: InscricoesGinasioZP&#45;DD1CB3F0&#45;94F2&#45;EE11&#45;A1FD&#45;002248A44E9F&#45;&gt;Atualizar_uma_linha_4 -->
    <g id="edge7" class="edge">
      <title>invisnodeGraph cluster_Comutador with 1 nodes.Name: Atualizar_uma_linha_4, root name: InscricoesGinasioZP-DD1CB3F0-94F2-EE11-A1FD-002248A44E9F-&gt;Atualizar_uma_linha_4</title>
      <path fill="none" stroke="black" d="M199.06,-64C199.06,-58.67 199.06,-53.08 199.06,-47.74" />
      <polygon fill="black" stroke="black" points="202.56,-47.77 199.06,-37.77 195.56,-47.77 202.56,-47.77" />
    </g>
    <!-- Quando_uma_linha_e_adicionada&#45;_modificada_ou_eliminada -->
    <g id="node3" class="node">
      <title>Quando_uma_linha_e_adicionada-_modificada_ou_eliminada</title>
      <ellipse fill="#d9ebff" stroke="#0077ff" cx="277.06" cy="-528.5" rx="277.06" ry="18" />
      <text text-anchor="middle" x="277.06" y="-523.45" font-family="Helvetica,sans-Serif" font-size="14.00">Quando_uma_linha_e_adicionada-_modificada_ou_eliminada</text>
    </g>
    <!-- Obter_conteudo_do_ficheiro -->
    <g id="node4" class="node">
      <title>Obter_conteudo_do_ficheiro</title>
      <polygon fill="#daece3" stroke="#088142" points="368.56,-474.5 185.56,-474.5 185.56,-438.5 368.56,-438.5 368.56,-474.5" />
      <text text-anchor="middle" x="277.06" y="-451.45" font-family="Helvetica,sans-Serif" font-size="14.00">Obter_conteudo_do_ficheiro</text>
    </g>
    <!-- Quando_uma_linha_e_adicionada&#45;_modificada_ou_eliminada&#45;&gt;Obter_conteudo_do_ficheiro -->
    <g id="edge1" class="edge">
      <title>Quando_uma_linha_e_adicionada-_modificada_ou_eliminada-&gt;Obter_conteudo_do_ficheiro</title>
      <path fill="none" stroke="black" d="M277.06,-510.2C277.06,-502.91 277.06,-494.23 277.06,-486.04" />
      <polygon fill="black" stroke="black" points="280.56,-486.12 277.06,-476.12 273.56,-486.12 280.56,-486.12" />
    </g>
    <!-- Compor -->
    <g id="node5" class="node">
      <title>Compor</title>
      <polygon fill="#eee9ff" stroke="#8c6cff" points="304.06,-402.5 250.06,-402.5 250.06,-366.5 304.06,-366.5 304.06,-402.5" />
      <text text-anchor="middle" x="277.06" y="-379.45" font-family="Helvetica,sans-Serif" font-size="14.00">Compor</text>
    </g>
    <!-- Obter_conteudo_do_ficheiro&#45;&gt;Compor -->
    <g id="edge2" class="edge">
      <title>Obter_conteudo_do_ficheiro-&gt;Compor</title>
      <path fill="none" stroke="black" d="M277.06,-438.2C277.06,-430.91 277.06,-422.23 277.06,-414.04" />
      <polygon fill="black" stroke="black" points="280.56,-414.12 277.06,-404.12 273.56,-414.12 280.56,-414.12" />
    </g>
    <!-- Inicializar_variavel_2 -->
    <g id="node6" class="node">
      <title>Inicializar_variavel_2</title>
      <polygon fill="#ebdbf9" stroke="#770bd6" points="341.93,-330.5 212.18,-330.5 212.18,-294.5 341.93,-294.5 341.93,-330.5" />
      <text text-anchor="middle" x="277.06" y="-307.45" font-family="Helvetica,sans-Serif" font-size="14.00">Inicializar_variavel_2</text>
    </g>
    <!-- Compor&#45;&gt;Inicializar_variavel_2 -->
    <g id="edge3" class="edge">
      <title>Compor-&gt;Inicializar_variavel_2</title>
      <path fill="none" stroke="black" d="M277.06,-366.2C277.06,-358.91 277.06,-350.23 277.06,-342.04" />
      <polygon fill="black" stroke="black" points="280.56,-342.12 277.06,-332.12 273.56,-342.12 280.56,-342.12" />
    </g>
    <!-- Inicializar_variavel_1 -->
    <g id="node7" class="node">
      <title>Inicializar_variavel_1</title>
      <polygon fill="#ebdbf9" stroke="#770bd6" points="341.93,-258.5 212.18,-258.5 212.18,-222.5 341.93,-222.5 341.93,-258.5" />
      <text text-anchor="middle" x="277.06" y="-235.45" font-family="Helvetica,sans-Serif" font-size="14.00">Inicializar_variavel_1</text>
    </g>
    <!-- Inicializar_variavel_2&#45;&gt;Inicializar_variavel_1 -->
    <g id="edge4" class="edge">
      <title>Inicializar_variavel_2-&gt;Inicializar_variavel_1</title>
      <path fill="none" stroke="black" d="M277.06,-294.2C277.06,-286.91 277.06,-278.23 277.06,-270.04" />
      <polygon fill="black" stroke="black" points="280.56,-270.12 277.06,-260.12 273.56,-270.12 280.56,-270.12" />
    </g>
    <!-- Inicializar_variavel -->
    <g id="node8" class="node">
      <title>Inicializar_variavel</title>
      <polygon fill="#ebdbf9" stroke="#770bd6" points="333.68,-186.5 220.43,-186.5 220.43,-150.5 333.68,-150.5 333.68,-186.5" />
      <text text-anchor="middle" x="277.06" y="-163.45" font-family="Helvetica,sans-Serif" font-size="14.00">Inicializar_variavel</text>
    </g>
    <!-- Inicializar_variavel_1&#45;&gt;Inicializar_variavel -->
    <g id="edge5" class="edge">
      <title>Inicializar_variavel_1-&gt;Inicializar_variavel</title>
      <path fill="none" stroke="black" d="M277.06,-222.2C277.06,-214.91 277.06,-206.23 277.06,-198.04" />
      <polygon fill="black" stroke="black" points="280.56,-198.12 277.06,-188.12 273.56,-198.12 280.56,-198.12" />
    </g>
    <!-- Inicializar_variavel&#45;&gt;Comutador -->
    <g id="edge6" class="edge">
      <title>Inicializar_variavel-&gt;Comutador</title>
      <path fill="none" stroke="black" d="M277.06,-150.14C277.06,-142.95 277.06,-134.38 277.06,-126.13" />
      <polygon fill="black" stroke="black" points="280.56,-134.01 277.06,-124.01 273.56,-134.01 280.56,-134.01" />
    </g>
  </g>
</svg>