<?xml version="1.0" encoding="UTF-8" standalone="no"?>
<!DOCTYPE svg PUBLIC "-//W3C//DTD SVG 1.1//EN"
 "http://www.w3.org/Graphics/SVG/1.1/DTD/svg11.dtd">
<!-- Generated by graphviz version 9.0.0 (20230911.1827)
 -->
<!-- Title: Teste2_PhoneTablet Pages: 1 -->
<svg width="335pt" height="260pt"
 viewBox="0.00 0.00 335.00 260.00" xmlns="http://www.w3.org/2000/svg" xmlns:xlink="http://www.w3.org/1999/xlink">
<g id="graph0" class="graph" transform="scale(1 1) rotate(0) translate(4 256)">
<title>Teste2_PhoneTablet</title>
<polygon fill="white" stroke="none" points="-4,4 -4,-256 331,-256 331,4 -4,4"/>
<!-- Login -->
<g id="node1" class="node">
<title>Login</title>
<polygon fill="none" stroke="black" points="120.75,-252 61.5,-252 61.5,-216 120.75,-216 120.75,-252"/>
<text text-anchor="start" x="73.5" y="-228.95" font-family="Helvetica,sans-Serif" font-size="14.00">Login</text>
</g>
<!-- Home -->
<g id="node2" class="node">
<title>Home</title>
<polygon fill="none" stroke="black" points="62.25,-180 0,-180 0,-144 62.25,-144 62.25,-180"/>
<text text-anchor="start" x="12" y="-156.95" font-family="Helvetica,sans-Serif" font-size="14.00">Home</text>
</g>
<!-- Login&#45;&gt;Home -->
<g id="edge1" class="edge">
<title>Login&#45;&gt;Home</title>
<path fill="none" stroke="black" d="M76.29,-215.7C69.32,-207.56 60.86,-197.69 53.15,-188.7"/>
<polygon fill="black" stroke="black" points="55.94,-186.57 46.77,-181.25 50.62,-191.12 55.94,-186.57"/>
</g>
<!-- RecoverPassword -->
<g id="node3" class="node">
<title>RecoverPassword</title>
<polygon fill="none" stroke="black" points="221.62,-180 80.62,-180 80.62,-144 221.62,-144 221.62,-180"/>
<text text-anchor="start" x="92.62" y="-156.95" font-family="Helvetica,sans-Serif" font-size="14.00">RecoverPassword</text>
</g>
<!-- Login&#45;&gt;RecoverPassword -->
<g id="edge2" class="edge">
<title>Login&#45;&gt;RecoverPassword</title>
<path fill="none" stroke="black" d="M105.96,-215.7C112.93,-207.56 121.39,-197.69 129.1,-188.7"/>
<polygon fill="black" stroke="black" points="131.63,-191.12 135.48,-181.25 126.31,-186.57 131.63,-191.12"/>
</g>
<!-- TakePhoto -->
<g id="node4" class="node">
<title>TakePhoto</title>
<polygon fill="none" stroke="black" points="320.62,-108 227.62,-108 227.62,-72 320.62,-72 320.62,-108"/>
<text text-anchor="start" x="239.62" y="-84.95" font-family="Helvetica,sans-Serif" font-size="14.00">TakePhoto</text>
</g>
<!-- PhotoGallery -->
<g id="node5" class="node">
<title>PhotoGallery</title>
<polygon fill="none" stroke="black" points="327,-36 221.25,-36 221.25,0 327,0 327,-36"/>
<text text-anchor="start" x="233.25" y="-12.95" font-family="Helvetica,sans-Serif" font-size="14.00">PhotoGallery</text>
</g>
<!-- TakePhoto&#45;&gt;PhotoGallery -->
<g id="edge3" class="edge">
<title>TakePhoto&#45;&gt;PhotoGallery</title>
<path fill="none" stroke="black" d="M274.12,-71.7C274.12,-64.41 274.12,-55.73 274.12,-47.54"/>
<polygon fill="black" stroke="black" points="277.63,-47.62 274.13,-37.62 270.63,-47.62 277.63,-47.62"/>
</g>
<!-- Activity -->
<g id="node6" class="node">
<title>Activity</title>
<polygon fill="none" stroke="black" points="308.25,-180 240,-180 240,-144 308.25,-144 308.25,-180"/>
<text text-anchor="start" x="252" y="-156.95" font-family="Helvetica,sans-Serif" font-size="14.00">Activity</text>
</g>
<!-- Activity&#45;&gt;TakePhoto -->
<g id="edge4" class="edge">
<title>Activity&#45;&gt;TakePhoto</title>
<path fill="none" stroke="black" d="M274.12,-143.7C274.12,-136.41 274.12,-127.73 274.12,-119.54"/>
<polygon fill="black" stroke="black" points="277.63,-119.62 274.13,-109.62 270.63,-119.62 277.63,-119.62"/>
</g>
<!-- Room -->
<g id="node7" class="node">
<title>Room</title>
<polygon fill="none" stroke="black" points="305.62,-252 242.62,-252 242.62,-216 305.62,-216 305.62,-252"/>
<text text-anchor="start" x="254.62" y="-228.95" font-family="Helvetica,sans-Serif" font-size="14.00">Room</text>
</g>
<!-- Room&#45;&gt;Activity -->
<g id="edge5" class="edge">
<title>Room&#45;&gt;Activity</title>
<path fill="none" stroke="black" d="M274.12,-215.7C274.12,-208.41 274.12,-199.73 274.12,-191.54"/>
<polygon fill="black" stroke="black" points="277.63,-191.62 274.13,-181.62 270.63,-191.62 277.63,-191.62"/>
</g>
</g>
</svg>
