<?xml version="1.0" encoding="UTF-8" standalone="no"?>
<!DOCTYPE svg PUBLIC "-//W3C//DTD SVG 1.1//EN"
 "http://www.w3.org/Graphics/SVG/1.1/DTD/svg11.dtd">
<!-- Generated by graphviz version 9.0.0 (20230911.1827)
 -->
<!-- Title: Teste_Tablet Pages: 1 -->
<svg width="329pt" height="188pt"
 viewBox="0.00 0.00 328.62 188.00" xmlns="http://www.w3.org/2000/svg" xmlns:xlink="http://www.w3.org/1999/xlink">
<g id="graph0" class="graph" transform="scale(1 1) rotate(0) translate(4 184)">
<title>Teste_Tablet</title>
<polygon fill="white" stroke="none" points="-4,4 -4,-184 324.62,-184 324.62,4 -4,4"/>
<!-- Login -->
<g id="node1" class="node">
<title>Login</title>
<polygon fill="none" stroke="black" points="120.75,-180 61.5,-180 61.5,-144 120.75,-144 120.75,-180"/>
<text text-anchor="start" x="73.5" y="-156.95" font-family="Helvetica,sans-Serif" font-size="14.00">Login</text>
</g>
<!-- Home -->
<g id="node2" class="node">
<title>Home</title>
<polygon fill="none" stroke="black" points="62.25,-108 0,-108 0,-72 62.25,-72 62.25,-108"/>
<text text-anchor="start" x="12" y="-84.95" font-family="Helvetica,sans-Serif" font-size="14.00">Home</text>
</g>
<!-- Login&#45;&gt;Home -->
<g id="edge1" class="edge">
<title>Login&#45;&gt;Home</title>
<path fill="none" stroke="black" d="M76.29,-143.7C69.32,-135.56 60.86,-125.69 53.15,-116.7"/>
<polygon fill="black" stroke="black" points="55.94,-114.57 46.77,-109.25 50.62,-119.12 55.94,-114.57"/>
</g>
<!-- RecoverPassword -->
<g id="node3" class="node">
<title>RecoverPassword</title>
<polygon fill="none" stroke="black" points="221.62,-108 80.62,-108 80.62,-72 221.62,-72 221.62,-108"/>
<text text-anchor="start" x="92.62" y="-84.95" font-family="Helvetica,sans-Serif" font-size="14.00">RecoverPassword</text>
</g>
<!-- Login&#45;&gt;RecoverPassword -->
<g id="edge2" class="edge">
<title>Login&#45;&gt;RecoverPassword</title>
<path fill="none" stroke="black" d="M105.96,-143.7C112.93,-135.56 121.39,-125.69 129.1,-116.7"/>
<polygon fill="black" stroke="black" points="131.63,-119.12 135.48,-109.25 126.31,-114.57 131.63,-119.12"/>
</g>
<!-- Activity -->
<g id="node4" class="node">
<title>Activity</title>
<polygon fill="none" stroke="black" points="308.25,-108 240,-108 240,-72 308.25,-72 308.25,-108"/>
<text text-anchor="start" x="252" y="-84.95" font-family="Helvetica,sans-Serif" font-size="14.00">Activity</text>
</g>
<!-- TakePhoto -->
<g id="node5" class="node">
<title>TakePhoto</title>
<polygon fill="none" stroke="black" points="320.62,-36 227.62,-36 227.62,0 320.62,0 320.62,-36"/>
<text text-anchor="start" x="239.62" y="-12.95" font-family="Helvetica,sans-Serif" font-size="14.00">TakePhoto</text>
</g>
<!-- Activity&#45;&gt;TakePhoto -->
<g id="edge3" class="edge">
<title>Activity&#45;&gt;TakePhoto</title>
<path fill="none" stroke="black" d="M274.12,-71.7C274.12,-64.41 274.12,-55.73 274.12,-47.54"/>
<polygon fill="black" stroke="black" points="277.63,-47.62 274.13,-37.62 270.63,-47.62 277.63,-47.62"/>
</g>
<!-- Room -->
<g id="node6" class="node">
<title>Room</title>
<polygon fill="none" stroke="black" points="305.62,-180 242.62,-180 242.62,-144 305.62,-144 305.62,-180"/>
<text text-anchor="start" x="254.62" y="-156.95" font-family="Helvetica,sans-Serif" font-size="14.00">Room</text>
</g>
<!-- Room&#45;&gt;Activity -->
<g id="edge4" class="edge">
<title>Room&#45;&gt;Activity</title>
<path fill="none" stroke="black" d="M274.12,-143.7C274.12,-136.41 274.12,-127.73 274.12,-119.54"/>
<polygon fill="black" stroke="black" points="277.63,-119.62 274.13,-109.62 270.63,-119.62 277.63,-119.62"/>
</g>
</g>
</svg>
